<svg width="22" height="17" fill="none" xmlns="http://www.w3.org/2000/svg"><path d="M21.94 7.649l-1.706-3.558a.651.651 0 00-.589-.363h-5.364V.627A.638.638 0 0013.632 0H.65C.291 0 0 .28 0 .627v10.546c0 .347.29.627.65.627h1.27c-.108.23-.19.474-.242.728H.65a.638.638 0 00-.649.627c0 .346.29.626.65.626h1.028c.304 1.506 1.68 2.646 3.327 2.646 1.646 0 3.022-1.14 3.325-2.646h5.418c.303 1.506 1.679 2.646 3.326 2.646 1.646 0 3.022-1.14 3.325-2.646h.952c.358 0 .649-.28.649-.626V7.912a.61.61 0 00-.06-.263zm-8.193 4.879H8.33a3.166 3.166 0 00-.242-.728h5.544a.659.659 0 00.444-.17c-.152.278-.264.58-.329.898zM1.298 1.253h11.685v9.294H7.048a3.45 3.45 0 00-2.044-.665 3.45 3.45 0 00-2.044.665H1.298V1.253zm3.706 13.92c-1.153 0-2.09-.905-2.09-2.018 0-1.114.937-2.02 2.09-2.02 1.153 0 2.091.906 2.091 2.02 0 1.113-.938 2.018-2.09 2.018zm12.07 0c-1.154 0-2.092-.905-2.092-2.018 0-1.114.939-2.02 2.091-2.02 1.153 0 2.091.906 2.091 2.02 0 1.113-.938 2.018-2.09 2.018zm3.628-2.645h-.303c-.304-1.506-1.679-2.646-3.326-2.646a3.422 3.422 0 00-2.814 1.452.61.61 0 00.022-.16V4.98h4.95l1.47 3.07v4.477z" fill="#DBE0E1"/></svg>