<svg width="22" height="21" fill="none" xmlns="http://www.w3.org/2000/svg"><path d="M10.083 20.201C4.523 20.201 0 15.671 0 10.104 0 4.537 4.524.007 10.083.007c1.933 0 3.814.552 5.44 1.596a.69.69 0 01.206.952.687.687 0 01-.95.208 8.66 8.66 0 00-4.696-1.38c-4.801 0-8.708 3.913-8.708 8.721s3.907 8.72 8.708 8.72 8.708-3.912 8.708-8.72c0-.287-.014-.572-.04-.852a.688.688 0 111.368-.133c.031.324.047.653.047.985 0 5.568-4.524 10.097-10.083 10.097z" fill="url(#paint0_linear)"/><path d="M11.229 12.399a.682.682 0 01-.486-.202l-4.125-4.13a.687.687 0 11.972-.974l3.64 3.644 9.596-9.61a.687.687 0 11.973.974L11.716 12.198a.688.688 0 01-.487.201z" fill="url(#paint1_linear)"/><defs><linearGradient id="paint0_linear" x1="0" y1="1.28" x2="20.526" y2="18.577" gradientUnits="userSpaceOnUse"><stop stop-color="#82BB58"/><stop offset="1" stop-color="#53A580"/></linearGradient><linearGradient id="paint1_linear" x1="6.417" y1="1.649" x2="18.142" y2="15.086" gradientUnits="userSpaceOnUse"><stop stop-color="#82BB58"/><stop offset="1" stop-color="#53A580"/></linearGradient></defs></svg>