<svg width="210" height="263" fill="none" xmlns="http://www.w3.org/2000/svg"><path d="M2 2a2 2 0 012-2h206v258H4a2 2 0 01-2-2V2z" fill="url(#paint0_linear)"/><mask id="a" maskUnits="userSpaceOnUse" x="2" y="0" width="208" height="258"><path d="M2 2a2 2 0 012-2h206v258H4a2 2 0 01-2-2V2z" fill="url(#paint1_linear)"/></mask><g mask="url(#a)" fill="#fff"><path d="M35 247h-7.714v-7.714H35z"/><path fill-opacity=".8" d="M22.142 175h-7.714v-7.714h7.714zm25.716 20.572H37.572v-10.286h10.286z"/><path fill-opacity=".6" d="M87.714 252.143H77.428v-10.286h10.286z"/><path d="M50.428 226.429H35V211h15.43z"/><path fill-opacity=".6" d="M22.142 208.429H11.856v-10.286h10.286z"/><path fill-opacity=".2" d="M9.286 169.857H-1v-10.286H9.286z"/><path fill-opacity=".8" d="M11.858 221.286H6.715v-5.143h5.143z"/><path fill-opacity=".2" d="M152 256h-5.143v-5.143H152z"/><path d="M109.571 253.429h-5.143v-5.143h5.143z"/><path fill-opacity=".6" d="M47.858 172.429h-5.143v-5.143h5.143z"/><path fill-opacity=".2" d="M49.142 250.857h-18v-18h18z"/><path fill-opacity=".6" d="M14.428 254.714H2.858v-11.571h11.57z"/><path fill-opacity=".8" d="M67.142 257.286H53v-14.143h14.143z"/></g><defs><linearGradient id="paint0_linear" x1="2" y1="16.27" x2="249.501" y2="184.651" gradientUnits="userSpaceOnUse"><stop stop-color="#82BB58"/><stop offset="1" stop-color="#53A580"/></linearGradient><linearGradient id="paint1_linear" x1="2" y1="16.27" x2="249.501" y2="184.651" gradientUnits="userSpaceOnUse"><stop stop-color="#82BB58"/><stop offset="1" stop-color="#53A580"/></linearGradient></defs></svg>