<svg width="47" height="18" fill="none" xmlns="http://www.w3.org/2000/svg"><path d="M14.051 9.759c0 .759.216 1.37.646 1.834.43.463 1.075.695 1.936.695.56 0 1.057-.137 1.495-.41a3.588 3.588 0 001.108-1.107 5.46 5.46 0 00.688-1.592 7.28 7.28 0 00.237-1.865c0-.885-.201-1.56-.603-2.023-.401-.464-.924-.696-1.57-.696-.445 0-.864.08-1.258.242a3.73 3.73 0 00-1.076.675 4.051 4.051 0 00-.817 1.012 4.431 4.431 0 00-.485 1.253s-.3 1.271-.3 1.982zm1.054-5.354a5.05 5.05 0 011.592-1.307c.617-.322 1.313-.484 2.087-.484.688 0 1.28.123 1.775.369.494.245.903.583 1.226 1.011.323.43.56.931.71 1.507a7.23 7.23 0 01.226 1.834c0 .942-.14 1.83-.42 2.666-.28.836-.67 1.57-1.172 2.203a5.641 5.641 0 01-1.786 1.496 4.788 4.788 0 01-2.28.548c-.817 0-1.52-.147-2.108-.442-.588-.296-1.09-.78-1.506-1.455L12.223 18H9.77l3.25-15.049h2.388l-.302 1.454zm16.205 4.3l-1.656.084c-.717.042-1.32.116-1.807.222-.488.105-.875.25-1.162.432a1.598 1.598 0 00-.613.664c-.122.26-.183.558-.183.895 0 .366.13.678.387.938.259.26.653.39 1.184.39a4.019 4.019 0 002.356-.748c.322-.232.594-.513.817-.843.222-.33.376-.699.462-1.107l.215-.927zm-4.625 5.48c-.99 0-1.778-.257-2.366-.77-.588-.512-.882-1.253-.882-2.223 0-.787.172-1.433.516-1.939a3.65 3.65 0 011.377-1.202c.573-.295 1.233-.505 1.98-.632a17.761 17.761 0 012.322-.232l2.044-.084.065-.337a4.27 4.27 0 00.064-.717c0-.505-.15-.899-.452-1.18-.3-.281-.796-.422-1.484-.422-.774 0-1.363.102-1.764.306-.402.204-.71.6-.925 1.19l-2.216-.231c.359-1.124.96-1.921 1.807-2.392.846-.47 1.965-.706 3.356-.706 1.305 0 2.302.291 2.99.874.689.584 1.04 1.402 1.055 2.456 0 .197-.015.4-.043.611-.03.211-.065.429-.108.654l-1.463 6.702h-2.323l.301-1.433a7.537 7.537 0 01-1.635 1.233c-.574.316-1.312.474-2.216.474zm8.914-11.234h2.71l1.42 7.904 4.474-7.904H47l-7.207 11.634a35.132 35.132 0 01-.957 1.486 5.623 5.623 0 01-.925 1.065c-.323.28-.678.495-1.065.643-.387.147-.846.221-1.377.221-.358 0-.684-.032-.978-.095a5.613 5.613 0 01-.871-.263l.645-1.813c.157.056.337.108.538.158.2.05.415.074.645.074.43 0 .778-.116 1.043-.348.266-.232.563-.622.893-1.17l.645-1.074L35.6 2.95zM6.595 10.412l-.075.369a1.625 1.625 0 00-.032.327c0 .408.103.688.311.843.208.155.492.232.85.232a4.607 4.607 0 001.334-.19l.366 1.792a7.25 7.25 0 01-2.26.337c-.989 0-1.749-.218-2.28-.653-.53-.436-.795-1.097-.795-1.982 0-.393.05-.78.15-1.159l1.183-5.48H0L.409 2.95h5.347L6.402 0h2.452l-.645 2.951h2.999l-.409 1.897h-3l-1.204 5.564z" fill="#212A4C"/></svg>