<svg height="910.222" viewBox="-21 -21 682.667 682.667" width="910.222" xmlns="http://www.w3.org/2000/svg"><path d="M0 132.977v374.046C0 580.465 59.535 640 132.977 640h374.046C580.465 640 640 580.465 640 507.023V132.977C640 59.535 580.465 0 507.023 0H132.977C59.535 0 0 59.535 0 132.977zm387.793 368.359C229.938 555.8 84.199 410.062 138.664 252.207c18.352-53.203 60.336-95.191 113.54-113.543C410.062 84.2 555.8 229.938 501.335 387.797 482.984 441 441 482.984 387.793 501.336zm154.281-374.86c-2.511 13.153-13.394 20.805-24.652 20.805-6.852 0-13.836-2.828-19.184-8.965a15.2 15.2 0 01-1.304-1.73c-5.52-8.438-5.692-18.461-1-26.59 3.32-5.754 8.68-9.863 15.097-11.582 6.41-1.727 13.114-.84 18.86 2.484 8.132 4.688 12.992 13.457 12.437 23.512a15.352 15.352 0 01-.254 2.067zm0 0"/><path d="M320 164.523c-85.734 0-155.477 69.743-155.477 155.477S234.266 475.477 320 475.477 475.477 405.734 475.477 320 405.734 164.523 320 164.523zm0 0"/></svg>