<svg width="462" height="334" fill="none" xmlns="http://www.w3.org/2000/svg"><path d="M33.906 280.25h4.992c2.563 0 4.461.68 5.696 2.039 1.218 1.344 1.828 3.438 1.828 6.281v3.117c0 3.172-.695 5.375-2.086 6.61-1.39 1.219-4.008 1.828-7.852 1.828h-1.757v-3.586h2.93c2.03 0 3.437-.344 4.218-1.031.766-.703 1.148-1.946 1.148-3.727v-3.422c0-1.656-.328-2.804-.984-3.445-.672-.641-1.898-.961-3.68-.961h-2.976c-.922 0-1.594.039-2.016.117a4.122 4.122 0 00-1.195.399c-.938.468-1.68 2.445-2.227 5.929l-.258 1.664c-.03.125-.062.29-.093.493-.39 2.25-.766 3.672-1.125 4.265a5.005 5.005 0 01-2.274 1.992c-.953.422-2.14.633-3.562.633h-4.336c-2.563 0-4.453-.672-5.672-2.015-1.234-1.36-1.852-3.453-1.852-6.282v-2.484c0-3.031.68-5.187 2.04-6.469 1.359-1.297 3.656-1.945 6.89-1.945h1.008v3.609h-1.148c-2.047 0-3.446.336-4.196 1.008-.765.672-1.148 1.906-1.148 3.703v2.813c0 1.672.328 2.828.984 3.469.656.64 1.867.96 3.633.96h3.75c1.922 0 3.11-1.601 3.562-4.804l.258-1.735c.594-3.64 1.422-6.054 2.485-7.242 1.047-1.187 2.718-1.781 5.015-1.781zM46 273.492h-3.21l-18.235-10.266v9.211h-2.883v-12.352h3.164l18.281 10.289v-10.289H46v13.407zm0-20.892H10.586v-3.117H31.21v-1.476l-9.54-6.258v-3.399l10.946 7.196L46 236.921v3.679l-11.578 7.407v1.476H46v3.117zm0-20.703H21.672v-3.118H46v3.118zm-30.727 0h-4.078v-3.118h4.078v3.118zm16.125-14.587v-9.586h-1.523c-2.25 0-3.773.344-4.57 1.031-.797.672-1.196 1.93-1.196 3.774 0 1.828.407 3.086 1.22 3.773.796.672 2.312 1.008 4.546 1.008h1.523zm3.024 0h2.32c2.828 0 4.633-.313 5.414-.938.766-.625 1.149-1.875 1.149-3.75 0-1.968-.29-3.304-.867-4.007-.579-.719-1.649-1.078-3.211-1.078h-.774v-2.883h.82c2.532 0 4.36.625 5.485 1.875 1.11 1.234 1.664 3.265 1.664 6.093 0 2.954-.719 5.032-2.156 6.235-1.438 1.187-3.961 1.781-7.57 1.781H30.93c-3.61 0-6.125-.594-7.547-1.781-1.438-1.188-2.156-3.281-2.156-6.281 0-2.969.71-5.039 2.132-6.211 1.422-1.172 3.946-1.758 7.57-1.758h3.493v12.703zM46 196.63H30.203l1.828 2.789h-2.39l-1.922-2.789H10.586v-3.118h15.539l-1.875-2.789h2.414l1.969 2.789H46v3.118zm0-12.079H10.586v-3.117H31.21v-1.477l-9.54-6.258v-3.398l10.946 7.195L46 168.871v3.68l-11.578 7.406v1.477H46v3.117zm-15.07-23.727h5.812c2.781 0 4.578-.321 5.39-.961.813-.641 1.22-1.883 1.22-3.727 0-1.844-.414-3.086-1.243-3.726-.828-.657-2.617-.985-5.367-.985H30.93c-2.766 0-4.555.321-5.367.961-.813.641-1.22 1.891-1.22 3.75 0 1.844.415 3.086 1.243 3.727.828.64 2.61.961 5.344.961zm5.765-12.703c3.625 0 6.157.593 7.594 1.781 1.422 1.172 2.133 3.25 2.133 6.234 0 2.953-.719 5.031-2.156 6.235-1.438 1.187-3.961 1.781-7.57 1.781H30.93c-3.61 0-6.125-.594-7.547-1.781-1.438-1.188-2.156-3.282-2.156-6.282 0-2.968.71-5.039 2.132-6.211 1.422-1.171 3.946-1.757 7.57-1.757h5.766zm9.305-8.54H11.195v-5.508l30.633-9.703-30.633-10.43v-5.273H46v3.164H14.172L46 122.636v3.515l-31.828 10.266H46v3.164zM21.672 96.635h15.445c2.406 0 4.094-.297 5.063-.89.953-.61 1.43-1.641 1.43-3.094 0-1.797-.61-3.078-1.829-3.844-1.234-.766-3.398-1.149-6.492-1.149H21.672v-3.117H46v2.883h-2.836c1.094.625 1.914 1.43 2.461 2.414.531.985.797 2.164.797 3.54 0 2.265-.649 3.898-1.945 4.898-1.297.984-3.461 1.476-6.493 1.476H21.672v-3.117zm15.937-35.4h3.258c1.875 0 3.274.532 4.196 1.595.906 1.047 1.359 2.656 1.359 4.828V70.4c0 2.25-.406 3.805-1.219 4.664-.812.86-2.305 1.29-4.476 1.29h-2.508v-3.071h1.5c1.625 0 2.672-.219 3.14-.656.47-.438.703-1.274.703-2.508v-2.156c0-1.282-.226-2.18-.68-2.696-.468-.515-1.273-.773-2.413-.773h-2.297c-1.719 0-2.805 1.414-3.258 4.242-.078.484-.14.86-.187 1.125-.485 2.828-1.032 4.57-1.641 5.227-.61.656-1.617.984-3.023.984h-3.258c-1.89 0-3.29-.531-4.196-1.594-.922-1.062-1.382-2.68-1.382-4.851V67.47c0-2.25.406-3.804 1.218-4.664.813-.86 2.313-1.289 4.5-1.289h1.008v3.07h-.68c-1.187 0-2.007.235-2.46.704-.47.468-.704 1.289-.704 2.46v1.594c0 1.282.227 2.18.68 2.696.438.5 1.219.75 2.344.75h2.344c1.28 0 2.156-1.602 2.625-4.805.125-.875.226-1.57.304-2.086.266-1.672.797-2.867 1.594-3.586.797-.719 2-1.078 3.61-1.078zM46 53.283H21.672v-3.117H46v3.117zm-30.727 0h-4.078v-3.117h4.078v3.117zm21.75-26.914h1.008c2.953 0 5.094.601 6.422 1.804 1.313 1.203 1.969 3.149 1.969 5.836 0 2.969-.711 5.047-2.133 6.234-1.437 1.188-3.969 1.782-7.594 1.782H30.93c-3.61 0-6.125-.594-7.547-1.782-1.438-1.187-2.156-3.28-2.156-6.28 0-2.516.562-4.321 1.687-5.415 1.11-1.094 2.945-1.64 5.508-1.64h1.219v3.117h-.446c-1.765 0-3.015.32-3.75.96-.734.641-1.101 1.743-1.101 3.305 0 1.735.398 2.907 1.195 3.516.797.594 2.594.89 5.39.89h5.813c2.781 0 4.578-.312 5.39-.937.813-.625 1.22-1.828 1.22-3.61 0-1.75-.36-2.945-1.079-3.585-.734-.656-2.164-.985-4.289-.985h-.96v-3.21z" fill="#000"/><g filter="url(#filter0_d)"><circle cx="299.5" cy="163.5" r="147.5" fill="#000"/><g opacity=".8"><circle cx="299.5" cy="163.5" r="138" stroke="url(#paint0_linear)"/><circle cx="299.5" cy="163.5" r="129" stroke="url(#paint1_linear)"/><circle cx="299.5" cy="163.5" r="120" stroke="url(#paint2_linear)"/><circle cx="299.5" cy="163.5" r="111" stroke="url(#paint3_linear)"/><circle cx="299.5" cy="163.5" r="102" stroke="url(#paint4_linear)"/><circle cx="299.5" cy="163.5" r="93" stroke="url(#paint5_linear)"/><circle cx="299.5" cy="163.5" r="84" stroke="url(#paint6_linear)"/><circle cx="299.5" cy="163.5" r="57" stroke="url(#paint7_linear)"/><circle cx="299.5" cy="163.5" r="75" stroke="url(#paint8_linear)"/><circle cx="299.5" cy="163.5" r="48" stroke="url(#paint9_linear)"/><circle cx="299.5" cy="163.5" r="66" stroke="url(#paint10_linear)"/></g><circle cx="299.5" cy="163.5" r="48.5" fill="#F2F2F2"/><circle cx="299.5" cy="163.5" r="2.5" fill="#000"/></g><g filter="url(#filter1_d)"><path fill="#fff" d="M67 11h263v304H67z"/></g><path d="M291.999 189.878a1.064 1.064 0 001.403 0c.735-.642 1.442-1.245 2.067-1.777v-.001c1.828-1.557 3.406-2.902 4.504-4.227 1.228-1.481 1.799-2.886 1.799-4.42 0-1.491-.511-2.867-1.439-3.873a4.878 4.878 0 00-3.629-1.58 4.566 4.566 0 00-2.851.984c-.426.33-.812.733-1.152 1.203a5.85 5.85 0 00-1.153-1.203 4.561 4.561 0 00-2.85-.984 4.88 4.88 0 00-3.63 1.58c-.928 1.006-1.439 2.382-1.439 3.873 0 1.534.572 2.939 1.8 4.42 1.098 1.325 2.676 2.67 4.504 4.228l.003.003c.624.531 1.33 1.133 2.063 1.774z" fill="#000"/><rect x="92" y="212.41" width="214" height="4.221" rx="2.11" fill="#000"/><rect x="92" y="211.566" width="18.572" height="5.909" rx="2.955" fill="#000"/><circle cx="105.296" cy="214.521" r="5.487" fill="#000"/><circle cx="199" cy="250.399" r="23.426" fill="#000"/><path d="M211.829 248.667c1.333.769 1.333 2.694 0 3.464l-17.743 10.243c-1.333.77-3-.192-3-1.732v-20.487c0-1.54 1.667-2.502 3-1.732l17.743 10.244z" fill="#fff"/><path d="M254.459 248.666c1.334.77 1.334 2.695 0 3.465l-11.411 6.588c-1.333.77-3-.193-3-1.732V243.81c0-1.539 1.667-2.502 3-1.732l11.411 6.588z" fill="#000"/><rect x="254.505" y="261.584" width="22.371" height="4.221" rx="2.11" transform="rotate(-90 254.505 261.584)" fill="#000"/><path d="M143.541 252.13c-1.334-.769-1.334-2.694 0-3.464l11.411-6.588c1.333-.77 3 .192 3 1.732v13.177c0 1.539-1.667 2.502-3 1.732l-11.411-6.589z" fill="#000"/><rect x="143.495" y="239.213" width="22.371" height="4.221" rx="2.11" transform="rotate(90 143.495 239.213)" fill="#000"/><path d="M302.413 244.489l-4.749 2.741v-5.483l4.749 2.742z" fill="#000"/><path d="M283.208 250.081l1.16-3.587 2.744-1.794 10.964-.211" stroke="#000" stroke-width="2"/><path d="M282.574 256.413l4.749-2.742v5.483l-4.749-2.741z" fill="#000"/><path d="M301.779 250.82l-1.161 3.588-2.743 1.794-10.964.211" stroke="#000" stroke-width="2"/><path d="M120.597 245.756l-4.749 2.741v-5.483l4.749 2.742z" fill="#000"/><path d="M96.643 254.83h2.743l2.533-.422 3.271-3.165 3.694-3.799 3.376-1.689h4" stroke="#000" stroke-width="2"/><path d="M120.597 255.041l-4.749-2.741v5.483l4.749-2.742z" fill="#000"/><path d="M96.643 245.967h2.743l2.533.422 3.271 3.165 3.694 3.799 3.376 1.689h4" stroke="#000" stroke-width="2"/><path d="M115.694 134c11.537 0 20.901-9.364 20.901-20.901 0-11.537-9.364-20.9-20.901-20.9-11.537 0-20.901 9.363-20.901 20.9 0 11.537 9.364 20.901 20.901 20.901zm8.486-11.05v.002c-1.406 0-5.846-4.925-18.323-2.369-.33.086-.76.22-1.004.22-1.593 0-1.898-2.385-.184-2.749 6.902-1.524 13.956-1.39 19.972 2.209 1.435.916.826 2.687-.461 2.687zm2.269-5.526c-.197-.052-.139.12-1.04-.354-5.268-3.117-13.12-4.375-20.108-2.478-.404.11-.624.219-1.003.219-1.866 0-2.36-2.806-.328-3.379 8.214-2.308 17.026-.961 23.16 2.688.683.404.953.928.953 1.66-.009.909-.716 1.644-1.634 1.644zm-23.735-13.037c7.878-2.306 19.801-1.578 27.213 2.748 1.901 1.096 1.153 3.867-.867 3.867l-.002-.002c-.439 0-.709-.109-1.088-.329-5.997-3.581-16.728-4.44-23.671-2.501-.304.084-.684.218-1.088.218-1.113 0-1.963-.869-1.963-1.989 0-1.145.709-1.793 1.466-2.012z" fill="#80B955"/><rect x="145.276" y="109.687" width="3.331" height="6.825" rx="1.665" fill="#80B955"/><rect x="151.938" y="99.023" width="3.331" height="28.152" rx="1.665" fill="#80B955"/><rect x="158.6" y="104.995" width="3.331" height="16.209" rx="1.665" fill="#80B955"/><rect x="165.262" y="100.73" width="3.331" height="24.74" rx="1.665" fill="#80B955"/><rect x="171.924" y="94.332" width="3.331" height="37.536" rx="1.665" fill="#80B955"/><rect x="178.586" y="98.17" width="3.331" height="29.858" rx="1.665" fill="#80B955"/><rect x="185.248" y="104.995" width="3.331" height="16.209" rx="1.665" fill="#80B955"/><rect x="191.909" y="98.597" width="3.331" height="29.005" rx="1.665" fill="#80B955"/><rect x="198.571" y="104.569" width="3.331" height="17.062" rx="1.665" fill="#80B955"/><rect x="205.233" y="104.569" width="3.331" height="17.062" rx="1.665" fill="#80B955"/><rect x="211.895" y="104.569" width="3.331" height="17.062" rx="1.665" fill="#80B955"/><rect x="218.557" y="93.905" width="3.331" height="38.389" rx="1.665" fill="#80B955"/><rect x="225.219" y="106.701" width="3.331" height="12.796" rx="1.665" fill="#80B955"/><rect x="231.881" y="104.995" width="3.331" height="16.209" rx="1.665" fill="#80B955"/><rect x="238.543" y="104.995" width="3.331" height="16.209" rx="1.665" fill="#80B955"/><rect x="245.205" y="97.744" width="3.331" height="30.711" rx="1.665" fill="#80B955"/><rect x="251.866" y="105.848" width="3.331" height="14.503" rx="1.665" fill="#80B955"/><rect x="258.528" y="100.303" width="3.331" height="25.593" rx="1.665" fill="#80B955"/><rect x="265.19" y="100.73" width="3.331" height="24.74" rx="1.665" fill="#80B955"/><rect x="271.852" y="99.023" width="3.331" height="28.152" rx="1.665" fill="#80B955"/><rect x="278.514" y="97.744" width="3.331" height="30.711" rx="1.665" fill="#80B955"/><rect x="285.176" y="94.332" width="3.331" height="37.536" rx="1.665" fill="#80B955"/><rect x="291.838" y="92.199" width="3.331" height="41.801" rx="1.665" fill="#80B955"/><rect x="298.5" y="108.834" width="3.331" height="8.531" rx="1.665" fill="#80B955"/><defs><linearGradient id="paint0_linear" x1="299.5" y1="25" x2="299.5" y2="302" gradientUnits="userSpaceOnUse"><stop stop-color="#BFB9B9"/><stop offset="1" stop-color="#0E0E0E" stop-opacity="0"/></linearGradient><linearGradient id="paint1_linear" x1="299.5" y1="34" x2="299.5" y2="293" gradientUnits="userSpaceOnUse"><stop stop-color="#BFB9B9"/><stop offset="1" stop-color="#0E0E0E" stop-opacity="0"/></linearGradient><linearGradient id="paint2_linear" x1="299.5" y1="43" x2="299.5" y2="284" gradientUnits="userSpaceOnUse"><stop stop-color="#BFB9B9"/><stop offset="1" stop-color="#0E0E0E" stop-opacity="0"/></linearGradient><linearGradient id="paint3_linear" x1="299.5" y1="52" x2="299.5" y2="275" gradientUnits="userSpaceOnUse"><stop stop-color="#BFB9B9"/><stop offset="1" stop-color="#0E0E0E" stop-opacity="0"/></linearGradient><linearGradient id="paint4_linear" x1="299.5" y1="61" x2="299.5" y2="266" gradientUnits="userSpaceOnUse"><stop stop-color="#BFB9B9"/><stop offset="1" stop-color="#0E0E0E" stop-opacity="0"/></linearGradient><linearGradient id="paint5_linear" x1="299.5" y1="70" x2="299.5" y2="257" gradientUnits="userSpaceOnUse"><stop stop-color="#BFB9B9"/><stop offset="1" stop-color="#0E0E0E" stop-opacity="0"/></linearGradient><linearGradient id="paint6_linear" x1="299.5" y1="79" x2="299.5" y2="248" gradientUnits="userSpaceOnUse"><stop stop-color="#BFB9B9"/><stop offset="1" stop-color="#0E0E0E" stop-opacity="0"/></linearGradient><linearGradient id="paint7_linear" x1="299.5" y1="106" x2="299.5" y2="221" gradientUnits="userSpaceOnUse"><stop stop-color="#BFB9B9"/><stop offset="1" stop-color="#0E0E0E" stop-opacity="0"/></linearGradient><linearGradient id="paint8_linear" x1="299.5" y1="88" x2="299.5" y2="239" gradientUnits="userSpaceOnUse"><stop stop-color="#BFB9B9"/><stop offset="1" stop-color="#0E0E0E" stop-opacity="0"/></linearGradient><linearGradient id="paint9_linear" x1="299.5" y1="115" x2="299.5" y2="212" gradientUnits="userSpaceOnUse"><stop stop-color="#BFB9B9"/><stop offset="1" stop-color="#0E0E0E" stop-opacity="0"/></linearGradient><linearGradient id="paint10_linear" x1="299.5" y1="97" x2="299.5" y2="230" gradientUnits="userSpaceOnUse"><stop stop-color="#BFB9B9"/><stop offset="1" stop-color="#0E0E0E" stop-opacity="0"/></linearGradient><filter id="filter0_d" x="137" y="5" width="325" height="325" filterUnits="userSpaceOnUse" color-interpolation-filters="sRGB"><feFlood flood-opacity="0" result="BackgroundImageFix"/><feColorMatrix in="SourceAlpha" values="0 0 0 0 0 0 0 0 0 0 0 0 0 0 0 0 0 0 127 0"/><feOffset dy="4"/><feGaussianBlur stdDeviation="7.5"/><feColorMatrix values="0 0 0 0 0 0 0 0 0 0 0 0 0 0 0 0 0 0 0.07 0"/><feBlend in2="BackgroundImageFix" result="effect1_dropShadow"/><feBlend in="SourceGraphic" in2="effect1_dropShadow" result="shape"/></filter><filter id="filter1_d" x="52" y="0" width="293" height="334" filterUnits="userSpaceOnUse" color-interpolation-filters="sRGB"><feFlood flood-opacity="0" result="BackgroundImageFix"/><feColorMatrix in="SourceAlpha" values="0 0 0 0 0 0 0 0 0 0 0 0 0 0 0 0 0 0 127 0"/><feOffset dy="4"/><feGaussianBlur stdDeviation="7.5"/><feColorMatrix values="0 0 0 0 0 0 0 0 0 0 0 0 0 0 0 0 0 0 0.07 0"/><feBlend in2="BackgroundImageFix" result="effect1_dropShadow"/><feBlend in="SourceGraphic" in2="effect1_dropShadow" result="shape"/></filter></defs></svg>