<svg width="410" height="334" fill="none" xmlns="http://www.w3.org/2000/svg"><g filter="url(#filter0_d)"><circle cx="247.5" cy="163.5" r="147.5" fill="#000"/><g opacity=".8"><circle cx="247.5" cy="163.5" r="138" stroke="url(#paint0_linear)"/><circle cx="247.5" cy="163.5" r="129" stroke="url(#paint1_linear)"/><circle cx="247.5" cy="163.5" r="120" stroke="url(#paint2_linear)"/><circle cx="247.5" cy="163.5" r="111" stroke="url(#paint3_linear)"/><circle cx="247.5" cy="163.5" r="102" stroke="url(#paint4_linear)"/><circle cx="247.5" cy="163.5" r="93" stroke="url(#paint5_linear)"/><circle cx="247.5" cy="163.5" r="84" stroke="url(#paint6_linear)"/><circle cx="247.5" cy="163.5" r="57" stroke="url(#paint7_linear)"/><circle cx="247.5" cy="163.5" r="75" stroke="url(#paint8_linear)"/><circle cx="247.5" cy="163.5" r="48" stroke="url(#paint9_linear)"/><circle cx="247.5" cy="163.5" r="66" stroke="url(#paint10_linear)"/></g><circle cx="247.5" cy="163.5" r="48.5" fill="#F2F2F2"/><circle cx="247.5" cy="163.5" r="2.5" fill="#000"/></g><g filter="url(#filter1_d)"><path fill="#fff" d="M15 11h263v304H15z"/></g><path d="M239.999 189.878a1.064 1.064 0 001.403 0c.735-.642 1.442-1.245 2.067-1.777v-.001c1.828-1.557 3.406-2.902 4.504-4.227 1.228-1.481 1.799-2.886 1.799-4.42 0-1.491-.511-2.867-1.439-3.873a4.878 4.878 0 00-3.629-1.58 4.566 4.566 0 00-2.851.984c-.426.33-.812.733-1.152 1.203a5.85 5.85 0 00-1.153-1.203 4.561 4.561 0 00-2.85-.984 4.88 4.88 0 00-3.63 1.58c-.928 1.006-1.439 2.382-1.439 3.873 0 1.534.572 2.939 1.8 4.42 1.098 1.325 2.676 2.67 4.504 4.228l.003.003c.624.531 1.33 1.133 2.063 1.774z" fill="#000"/><rect x="40" y="212.41" width="214" height="4.221" rx="2.11" fill="#000"/><rect x="40" y="211.566" width="18.572" height="5.909" rx="2.955" fill="#000"/><circle cx="53.296" cy="214.521" r="5.487" fill="#000"/><circle cx="147" cy="250.399" r="23.426" fill="#000"/><path d="M159.829 248.667c1.333.769 1.333 2.694 0 3.464l-17.743 10.243c-1.333.77-3-.192-3-1.732v-20.487c0-1.54 1.667-2.502 3-1.732l17.743 10.244z" fill="#fff"/><path d="M202.459 248.666c1.334.77 1.334 2.695 0 3.465l-11.411 6.588c-1.333.77-3-.193-3-1.732V243.81c0-1.539 1.667-2.502 3-1.732l11.411 6.588z" fill="#000"/><rect x="202.505" y="261.584" width="22.371" height="4.221" rx="2.11" transform="rotate(-90 202.505 261.584)" fill="#000"/><path d="M91.54 252.13c-1.333-.769-1.333-2.694 0-3.464l11.412-6.588c1.333-.77 3 .192 3 1.732v13.177c0 1.539-1.667 2.502-3 1.732L91.54 252.13z" fill="#000"/><rect x="91.495" y="239.213" width="22.371" height="4.221" rx="2.11" transform="rotate(90 91.495 239.213)" fill="#000"/><path d="M250.413 244.489l-4.749 2.741v-5.483l4.749 2.742z" fill="#000"/><path d="M231.208 250.081l1.16-3.587 2.744-1.794 10.964-.211" stroke="#000" stroke-width="2"/><path d="M230.574 256.413l4.749-2.742v5.483l-4.749-2.741z" fill="#000"/><path d="M249.779 250.82l-1.161 3.588-2.743 1.794-10.964.211" stroke="#000" stroke-width="2"/><path d="M68.597 245.756l-4.749 2.741v-5.483l4.749 2.742z" fill="#000"/><path d="M44.643 254.83h2.743l2.533-.422 3.271-3.165 3.694-3.799 3.376-1.689h4" stroke="#000" stroke-width="2"/><path d="M68.597 255.041l-4.749-2.741v5.483l4.749-2.742z" fill="#000"/><path d="M44.643 245.967h2.743l2.533.422 3.271 3.165 3.694 3.799 3.376 1.689h4" stroke="#000" stroke-width="2"/><path d="M63.694 134c11.537 0 20.9-9.364 20.9-20.901 0-11.537-9.363-20.9-20.9-20.9-11.537 0-20.901 9.363-20.901 20.9 0 11.537 9.364 20.901 20.9 20.901zm8.486-11.05v.002c-1.406 0-5.846-4.925-18.324-2.369-.329.086-.759.22-1.003.22-1.593 0-1.898-2.385-.184-2.749 6.902-1.524 13.956-1.39 19.972 2.209 1.435.916.826 2.687-.461 2.687zm2.27-5.526c-.198-.052-.14.12-1.04-.354-5.27-3.117-13.121-4.375-20.11-2.478-.403.11-.623.219-1.002.219-1.866 0-2.36-2.806-.328-3.379 8.214-2.308 17.026-.961 23.16 2.688.683.404.953.928.953 1.66-.009.909-.716 1.644-1.634 1.644zm-23.736-13.037c7.878-2.306 19.8-1.578 27.213 2.748 1.9 1.096 1.153 3.867-.867 3.867l-.002-.002c-.439 0-.709-.109-1.088-.329-5.997-3.581-16.728-4.44-23.67-2.501-.305.084-.685.218-1.09.218-1.112 0-1.962-.869-1.962-1.989 0-1.145.709-1.793 1.466-2.012z" fill="#80B955"/><rect x="93.276" y="109.687" width="3.331" height="6.825" rx="1.665" fill="#80B955"/><rect x="99.938" y="99.023" width="3.331" height="28.152" rx="1.665" fill="#80B955"/><rect x="106.6" y="104.995" width="3.331" height="16.209" rx="1.665" fill="#80B955"/><rect x="113.262" y="100.73" width="3.331" height="24.74" rx="1.665" fill="#80B955"/><rect x="119.924" y="94.332" width="3.331" height="37.536" rx="1.665" fill="#80B955"/><rect x="126.586" y="98.17" width="3.331" height="29.858" rx="1.665" fill="#80B955"/><rect x="133.248" y="104.995" width="3.331" height="16.209" rx="1.665" fill="#80B955"/><rect x="139.909" y="98.597" width="3.331" height="29.005" rx="1.665" fill="#80B955"/><rect x="146.571" y="104.569" width="3.331" height="17.062" rx="1.665" fill="#80B955"/><rect x="153.233" y="104.569" width="3.331" height="17.062" rx="1.665" fill="#80B955"/><rect x="159.895" y="104.569" width="3.331" height="17.062" rx="1.665" fill="#80B955"/><rect x="166.557" y="93.905" width="3.331" height="38.389" rx="1.665" fill="#80B955"/><rect x="173.219" y="106.701" width="3.331" height="12.796" rx="1.665" fill="#80B955"/><rect x="179.881" y="104.995" width="3.331" height="16.209" rx="1.665" fill="#80B955"/><rect x="186.543" y="104.995" width="3.331" height="16.209" rx="1.665" fill="#80B955"/><rect x="193.205" y="97.744" width="3.331" height="30.711" rx="1.665" fill="#80B955"/><rect x="199.866" y="105.848" width="3.331" height="14.503" rx="1.665" fill="#80B955"/><rect x="206.528" y="100.303" width="3.331" height="25.593" rx="1.665" fill="#80B955"/><rect x="213.19" y="100.73" width="3.331" height="24.74" rx="1.665" fill="#80B955"/><rect x="219.852" y="99.023" width="3.331" height="28.152" rx="1.665" fill="#80B955"/><rect x="226.514" y="97.744" width="3.331" height="30.711" rx="1.665" fill="#80B955"/><rect x="233.176" y="94.332" width="3.331" height="37.536" rx="1.665" fill="#80B955"/><rect x="239.838" y="92.199" width="3.331" height="41.801" rx="1.665" fill="#80B955"/><rect x="246.5" y="108.834" width="3.331" height="8.531" rx="1.665" fill="#80B955"/><defs><linearGradient id="paint0_linear" x1="247.5" y1="25" x2="247.5" y2="302" gradientUnits="userSpaceOnUse"><stop stop-color="#BFB9B9"/><stop offset="1" stop-color="#0E0E0E" stop-opacity="0"/></linearGradient><linearGradient id="paint1_linear" x1="247.5" y1="34" x2="247.5" y2="293" gradientUnits="userSpaceOnUse"><stop stop-color="#BFB9B9"/><stop offset="1" stop-color="#0E0E0E" stop-opacity="0"/></linearGradient><linearGradient id="paint2_linear" x1="247.5" y1="43" x2="247.5" y2="284" gradientUnits="userSpaceOnUse"><stop stop-color="#BFB9B9"/><stop offset="1" stop-color="#0E0E0E" stop-opacity="0"/></linearGradient><linearGradient id="paint3_linear" x1="247.5" y1="52" x2="247.5" y2="275" gradientUnits="userSpaceOnUse"><stop stop-color="#BFB9B9"/><stop offset="1" stop-color="#0E0E0E" stop-opacity="0"/></linearGradient><linearGradient id="paint4_linear" x1="247.5" y1="61" x2="247.5" y2="266" gradientUnits="userSpaceOnUse"><stop stop-color="#BFB9B9"/><stop offset="1" stop-color="#0E0E0E" stop-opacity="0"/></linearGradient><linearGradient id="paint5_linear" x1="247.5" y1="70" x2="247.5" y2="257" gradientUnits="userSpaceOnUse"><stop stop-color="#BFB9B9"/><stop offset="1" stop-color="#0E0E0E" stop-opacity="0"/></linearGradient><linearGradient id="paint6_linear" x1="247.5" y1="79" x2="247.5" y2="248" gradientUnits="userSpaceOnUse"><stop stop-color="#BFB9B9"/><stop offset="1" stop-color="#0E0E0E" stop-opacity="0"/></linearGradient><linearGradient id="paint7_linear" x1="247.5" y1="106" x2="247.5" y2="221" gradientUnits="userSpaceOnUse"><stop stop-color="#BFB9B9"/><stop offset="1" stop-color="#0E0E0E" stop-opacity="0"/></linearGradient><linearGradient id="paint8_linear" x1="247.5" y1="88" x2="247.5" y2="239" gradientUnits="userSpaceOnUse"><stop stop-color="#BFB9B9"/><stop offset="1" stop-color="#0E0E0E" stop-opacity="0"/></linearGradient><linearGradient id="paint9_linear" x1="247.5" y1="115" x2="247.5" y2="212" gradientUnits="userSpaceOnUse"><stop stop-color="#BFB9B9"/><stop offset="1" stop-color="#0E0E0E" stop-opacity="0"/></linearGradient><linearGradient id="paint10_linear" x1="247.5" y1="97" x2="247.5" y2="230" gradientUnits="userSpaceOnUse"><stop stop-color="#BFB9B9"/><stop offset="1" stop-color="#0E0E0E" stop-opacity="0"/></linearGradient><filter id="filter0_d" x="85" y="5" width="325" height="325" filterUnits="userSpaceOnUse" color-interpolation-filters="sRGB"><feFlood flood-opacity="0" result="BackgroundImageFix"/><feColorMatrix in="SourceAlpha" values="0 0 0 0 0 0 0 0 0 0 0 0 0 0 0 0 0 0 127 0"/><feOffset dy="4"/><feGaussianBlur stdDeviation="7.5"/><feColorMatrix values="0 0 0 0 0 0 0 0 0 0 0 0 0 0 0 0 0 0 0.07 0"/><feBlend in2="BackgroundImageFix" result="effect1_dropShadow"/><feBlend in="SourceGraphic" in2="effect1_dropShadow" result="shape"/></filter><filter id="filter1_d" x="0" y="0" width="293" height="334" filterUnits="userSpaceOnUse" color-interpolation-filters="sRGB"><feFlood flood-opacity="0" result="BackgroundImageFix"/><feColorMatrix in="SourceAlpha" values="0 0 0 0 0 0 0 0 0 0 0 0 0 0 0 0 0 0 127 0"/><feOffset dy="4"/><feGaussianBlur stdDeviation="7.5"/><feColorMatrix values="0 0 0 0 0 0 0 0 0 0 0 0 0 0 0 0 0 0 0.07 0"/><feBlend in2="BackgroundImageFix" result="effect1_dropShadow"/><feBlend in="SourceGraphic" in2="effect1_dropShadow" result="shape"/></filter></defs></svg>