<svg width="17" height="18" fill="none" xmlns="http://www.w3.org/2000/svg"><path d="M1 11.286l-.36-.348-.14.146v.202H1zM10.931 1l.36-.347a.5.5 0 00-.72 0l.36.347zm5.517 5.714l.36.348a.5.5 0 000-.695l-.36.347zM6.518 17v.5h.212l.147-.153-.36-.347zM1 17H.5a.5.5 0 00.5.5V17zm.36-5.367l9.93-10.286-.719-.694-9.93 10.285.719.695zm9.21-10.286l5.518 5.715.719-.695L11.291.653l-.72.694zm5.518 5.02l-9.93 10.286.719.694 9.931-10.285-.72-.695zM6.517 16.5H1v1h5.517v-1zM1.5 17v-5.714h-1V17h1zM7.261 4.776l5.517 5.714.72-.694L7.98 4.08l-.719.695zM9.276 17.5H17v-1H9.276v1z" fill="#0D1018"/></svg>