<svg width="106" height="60" fill="none" xmlns="http://www.w3.org/2000/svg"><path fill="#82BB58" d="M53 0h33v60H53z"/><path d="M54.381 33.252H38.137l8.975-5.001a1.957 1.957 0 00.755-2.655l-1.338-2.398a1.954 1.954 0 00-2.655-.753l-3.733 2.08c.439-.88.712-1.744.813-2.583.168-1.397-.149-2.658-.917-3.647a4.404 4.404 0 00-5.301-1.299.66.66 0 00.54 1.203 3.089 3.089 0 013.72.905c1.255 1.615.774 4.141-1.282 6.774l-.797.444-.576-1.032a2.488 2.488 0 00-.566-.69c.14-.838.53-1.923.962-2.632a.66.66 0 00-1.126-.685c-.464.762-.866 1.82-1.069 2.754a2.48 2.48 0 00-1.606.284l-.228.127c-.09-1.902.205-3.494.87-4.642a.66.66 0 10-1.142-.66c-.881 1.523-1.218 3.545-1.002 6.012l-.796.444c-3.363-2.5-6.654-3.011-8.862-1.355-1.599 1.2-2.201 3.321-1.465 5.16.752 1.877 2.63 3.02 5.218 3.26l-3.822 2.13a1.954 1.954 0 00-.753 2.653l1.337 2.4a1.953 1.953 0 002.655.753l4.308-2.4v10.736a2.343 2.343 0 002.341 2.341H53.64a2.344 2.344 0 002.342-2.34V34.851c0-.882-.718-1.6-1.6-1.6zm-21.968 1.68L30.46 31.43l5.948-3.314 1.953 3.503-2.974 1.657a.656.656 0 00-.28.156l-2.694 1.502zm12.104-11.336a.635.635 0 01.861.244l1.337 2.397a.636.636 0 01-.246.862l-6.956 3.877-1.953-3.503 6.957-3.877zm-10.939 1.877a1.169 1.169 0 01.9-.103c.306.087.559.286.712.562l.576 1.031-5.948 3.315-.577-1.035a1.165 1.165 0 01-.145-.66l.002-.02a1.173 1.173 0 01.602-.928l3.878-2.162zm-12.043 3.445a3.095 3.095 0 011.032-3.616c1.617-1.212 4.114-.827 6.798 1.01l-.307.171c-.484.27-.857.684-1.075 1.186-.87-.274-1.652-.424-2.772-.547a.66.66 0 00-.143 1.31c1.232.136 1.956.303 2.726.562.04.309.14.61.296.89l.576 1.036-.72.4c-3.27.358-5.663-.535-6.41-2.402zm2.77 10.534a.644.644 0 01-.862-.244l-1.337-2.4a.633.633 0 01.243-.859l6.097-3.397c.02-.01.038-.02.056-.032l.806-.449 1.954 3.504-1.659.924-.01.006-5.288 2.947zm6.267 9.487V37.47l5.2-2.898h3.039v5.837a.66.66 0 001.318 0v-5.837h4.977v15.391h-4.977v-6.43a.66.66 0 00-1.318 0v6.43h-7.216a1.024 1.024 0 01-1.023-1.023zm24.09 0c0 .564-.458 1.023-1.023 1.023h-7.215V34.571h7.957c.153 0 .282.128.282.28V48.94z" fill="#82BB58"/><path d="M51.964 18.483c.009.081.845 8.142-1.977 11.2a.66.66 0 10.97.895c3.223-3.495 2.356-11.881 2.318-12.237a.66.66 0 00-1.311.142zm6.03-.979c-1.115 1.707-1.47 3.231-1.484 3.295a.659.659 0 001.285.293c.003-.013.33-1.392 1.328-2.906 1.314-1.993 3.12-3.275 5.37-3.812a.659.659 0 10-.307-1.282c-2.566.612-4.707 2.138-6.192 4.412z" fill="#82BB58"/><path d="M44.472 13.883a.643.643 0 010 .131l-.156 1.918c-.022.204-.065.659.306.94.378.286.822.107 1.019.027l1.761-.734a.373.373 0 01.153-.002l1.776.74c.111.044.311.125.534.125.155 0 .32-.039.475-.156.37-.28.327-.736.305-.94l-.152-1.915a.747.747 0 01-.002-.133l1.28-1.543c.148-.168.44-.507.302-.948-.14-.447-.593-.56-.788-.608l-1.945-.483-1.024-1.708c-.094-.159-.344-.58-.832-.582h-.002c-.487 0-.74.42-.835.579l-1.015 1.696-.01.015-1.947.483c-.193.049-.647.162-.786.609-.137.44.165.792.302.948l1.281 1.54zm1.53-2.317c.44-.108.599-.326.735-.559l.744-1.242.75 1.253c.136.228.294.44.727.548l1.446.358-.931 1.122c-.306.362-.318.762-.294 1.074l.106 1.335-1.22-.508a1.603 1.603 0 00-1.165 0l-1.222.509.108-1.339c.021-.281.015-.699-.291-1.067l-.936-1.126 1.444-.358z" fill="#373F41"/><path d="M64.661 27.496c.139-.156.441-.506.305-.947-.139-.449-.595-.562-.79-.61l-1.943-.482-1.025-1.712c-.095-.159-.347-.579-.834-.579h-.003c-.486.001-.736.42-.831.58l-1.017 1.694-.01.017-1.943.482c-.195.048-.65.161-.79.61-.136.44.166.791.305.947l1.28 1.541a.721.721 0 01-.002.13l-.156 1.919c-.02.202-.063.661.31.941.377.284.82.105 1.014.026l1.762-.734a.383.383 0 01.155-.002l1.774.739c.111.045.311.126.534.126a.77.77 0 00.474-.155c.372-.28.33-.739.31-.942l-.156-1.914a.747.747 0 01-.002-.134l1.279-1.54zm-2.297.704c-.306.361-.318.762-.294 1.074l.108 1.335-1.223-.509a1.612 1.612 0 00-1.164 0l-1.222.51.108-1.339c.024-.309.011-.71-.29-1.066l-.935-1.127 1.446-.358c.436-.11.594-.327.73-.558l.746-1.244.718 1.199.027.045c.136.232.293.449.73.558l1.446.358-.93 1.122zm-4.395-14.539a3.3 3.3 0 003.297-3.294A3.301 3.301 0 0057.97 7.07a3.301 3.301 0 00-3.298 3.297 3.3 3.3 0 003.298 3.294zm0-5.272a1.98 1.98 0 011.979 1.978 1.98 1.98 0 01-3.959 0c0-1.09.888-1.978 1.98-1.978z" fill="#82BB58"/><g clip-path="url(#clip0)" fill="#F4F5F4"><path d="M54.381 33.252H38.137l8.975-5.001a1.957 1.957 0 00.755-2.655l-1.338-2.398a1.954 1.954 0 00-2.655-.753l-3.733 2.08c.439-.88.712-1.744.813-2.583.168-1.397-.149-2.658-.917-3.647a4.404 4.404 0 00-5.301-1.299.66.66 0 00.54 1.203 3.089 3.089 0 013.72.905c1.255 1.615.774 4.141-1.282 6.774l-.797.444-.576-1.032a2.488 2.488 0 00-.566-.69c.14-.838.53-1.923.962-2.632a.66.66 0 00-1.126-.685c-.464.762-.866 1.82-1.069 2.754a2.48 2.48 0 00-1.606.284l-.228.127c-.09-1.902.205-3.494.87-4.642a.66.66 0 10-1.142-.66c-.881 1.523-1.218 3.545-1.002 6.012l-.796.444c-3.363-2.5-6.654-3.011-8.862-1.355-1.599 1.2-2.201 3.321-1.465 5.16.752 1.877 2.63 3.02 5.218 3.26l-3.822 2.13a1.954 1.954 0 00-.753 2.653l1.337 2.4a1.953 1.953 0 002.655.753l4.308-2.4v10.736a2.343 2.343 0 002.341 2.341H53.64a2.344 2.344 0 002.342-2.34V34.851c0-.882-.718-1.6-1.6-1.6zm-21.968 1.68L30.46 31.43l5.948-3.314 1.953 3.503-2.974 1.657a.656.656 0 00-.28.156l-2.694 1.502zm12.104-11.336a.635.635 0 01.861.244l1.337 2.397a.636.636 0 01-.246.862l-6.956 3.877-1.953-3.503 6.957-3.877zm-10.939 1.877a1.169 1.169 0 01.9-.103c.306.087.559.286.712.562l.576 1.031-5.948 3.315-.577-1.035a1.165 1.165 0 01-.145-.66l.002-.02a1.173 1.173 0 01.602-.928l3.878-2.162zm-12.043 3.445a3.095 3.095 0 011.032-3.616c1.617-1.212 4.114-.827 6.798 1.01l-.307.171c-.484.27-.857.684-1.075 1.186-.87-.274-1.652-.424-2.772-.547a.66.66 0 00-.143 1.31c1.232.136 1.956.303 2.726.562.04.309.14.61.296.89l.576 1.036-.72.4c-3.27.358-5.663-.535-6.41-2.402zm2.77 10.534a.644.644 0 01-.862-.244l-1.337-2.4a.633.633 0 01.243-.859l6.097-3.397c.02-.01.038-.02.056-.032l.806-.449 1.954 3.504-1.659.924-.01.006-5.288 2.947zm6.267 9.487V37.47l5.2-2.898h3.039v5.837a.66.66 0 001.318 0v-5.837h4.977v15.391h-4.977v-6.43a.66.66 0 00-1.318 0v6.43h-7.216a1.024 1.024 0 01-1.023-1.023zm24.09 0c0 .564-.458 1.023-1.023 1.023h-7.215V34.571h7.957c.153 0 .282.128.282.28V48.94z"/><path d="M51.964 18.483c.009.081.845 8.142-1.977 11.2a.66.66 0 10.97.895c3.223-3.495 2.356-11.881 2.318-12.237a.66.66 0 00-1.311.142zm6.03-.979c-1.115 1.707-1.47 3.231-1.484 3.295a.659.659 0 001.285.293c.003-.013.33-1.392 1.328-2.906 1.314-1.993 3.12-3.275 5.37-3.812a.659.659 0 10-.307-1.282c-2.566.612-4.707 2.138-6.192 4.412zm-13.522-3.621a.643.643 0 010 .131l-.156 1.918c-.022.204-.065.659.306.94.378.286.822.107 1.019.027l1.761-.734a.373.373 0 01.153-.002l1.776.74c.111.044.311.125.534.125.155 0 .32-.039.475-.156.37-.28.327-.736.305-.94l-.152-1.915a.747.747 0 01-.002-.133l1.28-1.543c.148-.168.44-.507.302-.948-.14-.447-.593-.56-.788-.608l-1.945-.483-1.024-1.708c-.094-.159-.344-.58-.832-.582h-.002c-.487 0-.74.42-.835.579l-1.015 1.696-.01.015-1.947.483c-.193.049-.647.162-.786.609-.137.44.165.792.302.948l1.281 1.54zm1.53-2.317c.44-.108.599-.326.735-.559l.744-1.242.75 1.253c.136.228.294.44.727.548l1.446.358-.931 1.122c-.306.362-.318.762-.294 1.074l.106 1.335-1.22-.508a1.603 1.603 0 00-1.165 0l-1.222.509.108-1.339c.021-.281.015-.699-.291-1.067l-.936-1.126 1.444-.358zm18.659 15.93c.139-.156.441-.506.305-.947-.139-.449-.595-.562-.79-.61l-1.943-.482-1.025-1.712c-.095-.159-.347-.579-.834-.579h-.003c-.486.001-.736.42-.831.58l-1.017 1.694-.01.017-1.943.482c-.195.048-.65.161-.79.61-.136.44.166.791.305.947l1.28 1.541a.721.721 0 01-.002.13l-.156 1.919c-.02.202-.063.661.31.941.377.284.82.105 1.014.026l1.762-.734a.383.383 0 01.155-.002l1.774.739c.111.045.311.126.534.126a.77.77 0 00.474-.155c.372-.28.33-.739.31-.942l-.156-1.914a.747.747 0 01-.002-.134l1.279-1.54zm-2.297.704c-.306.361-.318.762-.294 1.074l.108 1.335-1.223-.509a1.612 1.612 0 00-1.164 0l-1.222.51.108-1.339c.024-.309.011-.71-.29-1.066l-.935-1.127 1.446-.358c.436-.11.594-.327.73-.558l.746-1.244.718 1.199.027.045c.136.232.293.449.73.558l1.446.358-.93 1.122zm-4.395-14.539a3.3 3.3 0 003.297-3.294A3.301 3.301 0 0057.97 7.07a3.301 3.301 0 00-3.298 3.297 3.3 3.3 0 003.298 3.294zm0-5.272a1.98 1.98 0 011.979 1.978 1.98 1.98 0 01-3.959 0c0-1.09.888-1.978 1.98-1.978z"/></g><path opacity=".2" fill="#82BB58" d="M85 4.138h4v4.138h-4zm12 13.448h9v9.31h-9zM81 37.242h5v5.172h-5zm13 18.62h3v3.103h-3zM9 0h5v5.172H9zm14 56.897h3V60h-3zM0 47.586h7v7.241H0zm5-21.724h3v3.103H5zM79 50.69h1v1.034h-1z"/><defs><clipPath id="clip0"><path fill="#fff" transform="translate(52 6)" d="M0 0h18v46H0z"/></clipPath></defs></svg>