<svg width="106" height="60" fill="none" xmlns="http://www.w3.org/2000/svg"><path fill="#82BB58" d="M53 0h33v60H53z"/><path d="M30.314 16.012a2.772 2.772 0 002.125-.17 20.486 20.486 0 014.6-1.681 21.48 21.48 0 014.96-.579c1.678 0 3.347.195 4.962.579a20.5 20.5 0 014.6 1.681c1.368.7 3.048.155 3.747-1.212a2.788 2.788 0 00-1.212-3.747 26.074 26.074 0 00-5.847-2.156c-4.08-.97-8.419-.97-12.499 0a26.065 26.065 0 00-5.846 2.156 2.767 2.767 0 00-1.383 1.622 2.766 2.766 0 00.17 2.125 2.766 2.766 0 001.623 1.382zm-.157-2.978a1.06 1.06 0 01.53-.62 24.35 24.35 0 015.46-2.015 25.344 25.344 0 0111.705 0 24.343 24.343 0 015.462 2.015 1.067 1.067 0 01-.97 1.898 22.211 22.211 0 00-4.986-1.823A23.207 23.207 0 0042 11.864c-1.811 0-3.614.21-5.359.624a22.213 22.213 0 00-4.986 1.824 1.06 1.06 0 01-.812.065 1.06 1.06 0 01-.622-.53 1.06 1.06 0 01-.064-.813z" fill="#82BB58"/><path d="M49.326 22.71a2.767 2.767 0 001.623-1.382 2.767 2.767 0 00.17-2.125 2.766 2.766 0 00-1.382-1.622 16.692 16.692 0 00-3.744-1.383 17.375 17.375 0 00-7.985 0 16.63 16.63 0 00-3.743 1.383 2.767 2.767 0 00-1.382 1.622 2.767 2.767 0 00.17 2.125 2.793 2.793 0 002.483 1.52 2.772 2.772 0 001.264-.308c.763-.39 1.603-.696 2.497-.909a11.821 11.821 0 015.408 0c.893.213 1.733.518 2.497.91a2.766 2.766 0 002.124.17zm-7.325-3.112c-1.05 0-2.093.121-3.102.361a12.84 12.84 0 00-2.882 1.051c-.253.13-.542.153-.813.065a1.06 1.06 0 01-.621-.53 1.06 1.06 0 01-.065-.813 1.06 1.06 0 01.53-.62 14.97 14.97 0 013.357-1.242 15.65 15.65 0 017.19 0c1.157.275 2.286.692 3.359 1.241.253.13.441.35.529.622a1.063 1.063 0 01-1.499 1.277 12.84 12.84 0 00-2.882-1.05A13.422 13.422 0 0042 19.597z" fill="#82BB58"/><path d="M45.375 24.28a7.311 7.311 0 00-1.64-.611 7.536 7.536 0 00-3.47 0 7.324 7.324 0 00-1.64.61 2.788 2.788 0 00-1.213 3.747 2.767 2.767 0 001.623 1.383 2.767 2.767 0 002.124-.17 1.977 1.977 0 011.68 0 2.772 2.772 0 002.126.17 2.767 2.767 0 001.622-1.383 2.767 2.767 0 00.17-2.124 2.766 2.766 0 00-1.382-1.622zm-.318 2.964a1.067 1.067 0 01-1.434.465 3.479 3.479 0 00-.78-.279 3.66 3.66 0 00-1.687 0 3.48 3.48 0 00-.779.278 1.068 1.068 0 01-1.5-1.277 1.06 1.06 0 01.53-.622 5.603 5.603 0 011.255-.468 5.808 5.808 0 012.676 0c.42.1.842.257 1.255.469a1.063 1.063 0 01.464 1.434z" fill="#000"/><path d="M64 35.345a2.796 2.796 0 00-2.793-2.793H22.793A2.796 2.796 0 0020 35.345a2.797 2.797 0 002.49 2.776l11.389 8.297v2.141a3.441 3.441 0 003.437 3.438h9.368a3.441 3.441 0 003.437-3.438v-2.14L61.51 38.12A2.797 2.797 0 0064 35.345zM22.793 34.27h38.414a1.075 1.075 0 010 2.148h-15.34a.86.86 0 000 1.719h12.7l-9.585 6.983H35.018l-9.586-6.983h12.7a.86.86 0 000-1.719H22.794a1.076 1.076 0 01-1.074-1.074c0-.592.482-1.074 1.074-1.074zm25.61 14.288a1.72 1.72 0 01-1.72 1.719h-9.367a1.72 1.72 0 01-1.718-1.719V46.84h12.804v1.719z" fill="#82BB58"/><path d="M42 38.138a.86.86 0 000-1.719.86.86 0 100 1.719z" fill="#82BB58"/><g clip-path="url(#clip0)" fill="#F4F5F4"><path d="M30.314 16.012a2.772 2.772 0 002.125-.17 20.486 20.486 0 014.6-1.681 21.48 21.48 0 014.96-.579c1.678 0 3.347.195 4.962.579a20.5 20.5 0 014.6 1.681c1.368.7 3.048.155 3.747-1.212a2.788 2.788 0 00-1.212-3.747 26.074 26.074 0 00-5.847-2.156c-4.08-.97-8.419-.97-12.499 0a26.065 26.065 0 00-5.846 2.156 2.767 2.767 0 00-1.383 1.622 2.766 2.766 0 00.17 2.125 2.766 2.766 0 001.623 1.382zm-.157-2.978a1.06 1.06 0 01.53-.62 24.35 24.35 0 015.46-2.015 25.344 25.344 0 0111.705 0 24.343 24.343 0 015.462 2.015 1.067 1.067 0 01-.97 1.898 22.211 22.211 0 00-4.986-1.823A23.207 23.207 0 0042 11.864c-1.811 0-3.614.21-5.359.624a22.213 22.213 0 00-4.986 1.824 1.06 1.06 0 01-.812.065 1.06 1.06 0 01-.622-.53 1.06 1.06 0 01-.064-.813zM64 35.345a2.796 2.796 0 00-2.793-2.793H22.793A2.796 2.796 0 0020 35.345a2.797 2.797 0 002.49 2.776l11.389 8.297v2.141a3.441 3.441 0 003.437 3.438h9.368a3.441 3.441 0 003.437-3.438v-2.14L61.51 38.12A2.797 2.797 0 0064 35.345zM22.793 34.27h38.414a1.075 1.075 0 010 2.148h-15.34a.86.86 0 000 1.719h12.7l-9.585 6.983H35.018l-9.586-6.983h12.7a.86.86 0 000-1.719H22.794a1.076 1.076 0 01-1.074-1.074c0-.592.482-1.074 1.074-1.074zm25.61 14.288a1.72 1.72 0 01-1.72 1.719h-9.367a1.72 1.72 0 01-1.718-1.719V46.84h12.804v1.719z"/></g><path opacity=".2" fill="#82BB58" d="M85 4.138h4v4.138h-4zm12 13.448h9v9.31h-9zM81 37.242h5v5.172h-5zm13 18.62h3v3.103h-3zM9 0h5v5.172H9zm14 56.897h3V60h-3zM0 47.586h7v7.241H0zm5-21.724h3v3.103H5zM79 50.69h1v1.034h-1z"/><defs><clipPath id="clip0"><path fill="#fff" transform="translate(53 8)" d="M0 0h18v44H0z"/></clipPath></defs></svg>