<svg width="106" height="60" fill="none" xmlns="http://www.w3.org/2000/svg"><path fill="#82BB58" d="M53 0h33v60H53z"/><path d="M67.876 43.01a1.192 1.192 0 00-1.043-.195L62.7 43.912c-.64.17-1.124.808-1.124 1.483v5.197a2.826 2.826 0 00-1.097-.219c-1.426 0-2.586 1.038-2.586 2.314 0 1.275 1.16 2.313 2.586 2.313s2.586-1.038 2.586-2.313v-4.643l4.15-1.104c.64-.17 1.124-.808 1.124-1.483V43.99c0-.396-.17-.753-.465-.98zm-7.396 10.5c-.595 0-1.097-.377-1.097-.823 0-.447.502-.824 1.097-.824.594 0 1.097.377 1.097.824 0 .446-.503.823-1.097.823zm6.336-8.005l-3.75.997v-1.1a.13.13 0 01.035-.055l3.75-.996v1.098a.127.127 0 01-.035.056zm1.881-25.784a.745.745 0 00-1.328.676c2.648 5.202 2.648 13.666 0 18.869a.745.745 0 001.327.675c1.381-2.713 2.142-6.303 2.142-10.11 0-3.807-.76-7.397-2.141-10.11z" fill="#82BB58"/><path d="M65.33 35.616a.741.741 0 001.001-.326c1.559-3.062 1.559-7.86 0-10.922a.745.745 0 00-1.327.675c1.343 2.64 1.343 6.933 0 9.572a.745.745 0 00.326 1.001z" fill="#82BB58"/><path d="M58.419 16.83a18.26 18.26 0 00-13-5.386 18.268 18.268 0 00-13.003 5.386c-7.165 7.169-7.165 18.833 0 26.002a18.417 18.417 0 0012.99 5.384c3.622 0 7.19-1.068 10.202-3.079a.745.745 0 10-.827-1.239c-6.667 4.451-15.63 3.56-21.311-2.119-6.586-6.588-6.586-17.308 0-23.896a16.787 16.787 0 0111.948-4.95 16.78 16.78 0 0111.947 4.95c6.588 6.588 6.588 17.308 0 23.896a.745.745 0 001.053 1.053c7.17-7.169 7.17-18.833 0-26.002z" fill="#82BB58"/><path d="M36.447 20.625a.745.745 0 00-1.04-1.067 14.23 14.23 0 00-4.33 10.271c0 7.91 6.433 14.344 14.342 14.344 7.91 0 14.344-6.435 14.344-14.344s-6.435-14.343-14.344-14.343c-2.525 0-5.01.666-7.185 1.928a.745.745 0 00.747 1.288 12.844 12.844 0 016.438-1.727c7.088 0 12.854 5.766 12.854 12.854 0 7.088-5.766 12.854-12.854 12.854-7.087 0-12.854-5.766-12.854-12.854 0-3.495 1.379-6.764 3.882-9.204zm-12.694-9.879l1.816.92.922 1.819c.207.406.494.612.854.612h.002c.248 0 .597-.108.853-.614l.92-1.817 1.816-.92c.408-.206.616-.494.616-.855 0-.362-.207-.65-.615-.855l-1.817-.921-.92-1.816c-.206-.408-.493-.615-.854-.616h-.002c-.248 0-.596.107-.855.613l-.92 1.82-1.816.92c-.507.256-.614.605-.614.853-.001.36.205.649.614.857zm2.707-1.413a.745.745 0 00.328-.328l.556-1.1.558 1.1a.744.744 0 00.328.328l1.1.558-1.1.557a.745.745 0 00-.328.328l-.557 1.1-.558-1.1a.744.744 0 00-.327-.328l-1.1-.557 1.1-.558zm32.707 2.842h.742a.745.745 0 100-1.49h-.742a.745.745 0 100 1.49zm4.063 0h.741a.745.745 0 100-1.49h-.741a.745.745 0 100 1.49zm-1.661 2.402a.745.745 0 00.745-.745v-.741a.745.745 0 10-1.49 0v.741c0 .411.334.745.745.745zm0-4.062a.745.745 0 00.745-.745v-.741a.745.745 0 10-1.49 0v.741c0 .411.334.745.745.745zM31.67 47.487h-.742a.745.745 0 100 1.49h.741a.745.745 0 100-1.49zm-4.062 0h-.741a.745.745 0 100 1.49h.74a.745.745 0 100-1.49zm1.662-2.405a.745.745 0 00-.746.745v.744a.745.745 0 101.49 0v-.744a.745.745 0 00-.745-.745zm0 4.065a.745.745 0 00-.746.745v.74a.745.745 0 101.49 0v-.74a.745.745 0 00-.745-.745z" fill="#82BB58"/><path d="M48.493 28.685c-1.476.272-2.632 1.43-2.632 2.638 0 .553.237 1.055.668 1.413.421.35.99.536 1.617.536.201 0 .408-.02.618-.058 1.474-.273 2.63-1.431 2.63-2.638v-6.438a1.234 1.234 0 00-.437-.953 1.309 1.309 0 00-1.074-.274L43.07 24.12c-.701.122-1.251.76-1.251 1.452v6.274a3.081 3.081 0 00-1.413-.052c-1.476.272-2.633 1.431-2.633 2.638 0 .553.238 1.055.668 1.413.421.351.99.536 1.617.536.201 0 .408-.019.618-.058 1.476-.272 2.632-1.43 2.632-2.638v-5.424l6.596-1.17v1.645a3.076 3.076 0 00-1.41-.051zm0 3.065c-.495.091-.847-.022-1.011-.158a.326.326 0 01-.132-.27c0-.43.605-1.023 1.414-1.172.124-.023.24-.034.345-.034.313 0 .54.09.663.191a.328.328 0 01.132.27c0 .43-.604 1.023-1.41 1.173zm-8.087 3.109c-.497.091-.848-.022-1.012-.158a.326.326 0 01-.131-.269c0-.43.604-1.024 1.413-1.173a1.91 1.91 0 01.346-.033c.315 0 .543.089.666.19.09.076.13.16.13.27 0 .43-.604 1.024-1.412 1.173zm2.902-8.11v-1.146a.067.067 0 01.02-.016l6.576-1.167v1.158l-6.596 1.17z" fill="#373F41"/><path d="M23.469 20.397a.745.745 0 10-1.328-.676C20.761 22.434 20 26.024 20 29.831c0 3.807.76 7.397 2.141 10.11a.745.745 0 101.328-.675c-2.648-5.203-2.648-13.667 0-18.87z" fill="#82BB58"/><path d="M25.505 24.042a.745.745 0 00-1.002.327c-1.555 3.062-1.555 7.86 0 10.922a.745.745 0 101.328-.675c-1.34-2.64-1.34-6.933 0-9.573a.745.745 0 00-.326-1.001z" fill="#82BB58"/><g clip-path="url(#clip0)" fill="#F4F5F4"><path d="M67.876 43.011a1.192 1.192 0 00-1.043-.196L62.7 43.912c-.64.17-1.124.808-1.124 1.484v5.197a2.826 2.826 0 00-1.097-.22c-1.426 0-2.586 1.038-2.586 2.314 0 1.275 1.16 2.313 2.586 2.313s2.586-1.038 2.586-2.313v-4.643l4.15-1.104c.64-.17 1.124-.808 1.124-1.483v-1.465c0-.397-.17-.754-.465-.981zm-7.396 10.5c-.595 0-1.097-.378-1.097-.824 0-.447.502-.824 1.097-.824.594 0 1.097.377 1.097.824 0 .446-.503.824-1.097.824zm6.336-8.006l-3.75.998v-1.1a.128.128 0 01.035-.056l3.75-.996v1.098a.128.128 0 01-.035.056zm1.881-25.784a.745.745 0 00-1.328.676c2.648 5.202 2.648 13.667 0 18.869a.745.745 0 101.327.675c1.381-2.712 2.142-6.303 2.142-10.11 0-3.806-.76-7.397-2.141-10.11z"/><path d="M65.33 35.617a.741.741 0 001.001-.326c1.559-3.063 1.559-7.86 0-10.923a.745.745 0 00-1.327.675c1.343 2.64 1.343 6.933 0 9.572a.745.745 0 00.326 1.002z"/><path d="M58.419 16.83a18.26 18.26 0 00-13-5.386 18.267 18.267 0 00-13.003 5.386c-7.165 7.169-7.165 18.833 0 26.003a18.418 18.418 0 0012.99 5.384c3.622 0 7.19-1.07 10.202-3.08a.745.745 0 00-.827-1.238c-6.667 4.45-15.63 3.559-21.311-2.12-6.586-6.588-6.586-17.308 0-23.896a16.787 16.787 0 0111.948-4.95 16.78 16.78 0 0111.947 4.95c6.588 6.588 6.588 17.308 0 23.896a.745.745 0 001.053 1.053c7.17-7.169 7.17-18.833 0-26.002z"/><path d="M36.447 20.625a.745.745 0 00-1.04-1.066 14.23 14.23 0 00-4.33 10.27c0 7.91 6.433 14.344 14.342 14.344 7.91 0 14.344-6.435 14.344-14.344s-6.435-14.343-14.344-14.343c-2.525 0-5.01.667-7.185 1.928a.745.745 0 00.747 1.288 12.845 12.845 0 016.438-1.727c7.088 0 12.854 5.767 12.854 12.854 0 7.088-5.766 12.855-12.854 12.855-7.087 0-12.854-5.767-12.854-12.854 0-3.496 1.379-6.765 3.882-9.205zm22.72-8.45h.742a.745.745 0 100-1.49h-.742a.745.745 0 100 1.49zm4.063 0h.741a.745.745 0 100-1.49h-.741a.745.745 0 100 1.49zm-1.661 2.402a.745.745 0 00.745-.745v-.74a.745.745 0 10-1.49 0v.74c0 .411.334.745.745.745zm0-4.062a.745.745 0 00.745-.745v-.74a.745.745 0 10-1.49 0v.74c0 .412.334.745.745.745z"/></g><path opacity=".2" fill="#82BB58" d="M85 4.138h4v4.138h-4zm12 13.448h9v9.31h-9zM81 37.242h5v5.172h-5zm13 18.62h3v3.103h-3zM9 0h5v5.172H9zm14 56.897h3V60h-3zM0 47.586h7v7.241H0zm5-21.724h3v3.103H5zM79 50.69h1v1.034h-1z"/><defs><clipPath id="clip0"><path fill="#fff" transform="translate(53 8)" d="M0 0h18v47H0z"/></clipPath></defs></svg>