<svg width="48" height="48" fill="none" xmlns="http://www.w3.org/2000/svg"><path d="M42.194 8.094a4.467 4.467 0 00-6.311 0l-1.66 1.66a11.942 11.942 0 00-5.484-.682l1.792-1.792a.75.75 0 000-1.06l-3.75-3.75a.75.75 0 00-1.061 0l-2.503 2.503a5.812 5.812 0 00-2.99-1.193 2.625 2.625 0 00-5.226.345v3.469a2.343 2.343 0 00-2.999 2.157 2.343 2.343 0 00-2.158 2.999H6.375a2.625 2.625 0 00-.345 5.227 5.812 5.812 0 001.193 2.99L4.72 23.468a.752.752 0 000 1.061l3.75 3.75a.75.75 0 001.06 0l.834-.833a13.632 13.632 0 01-3.887 7.765L5.47 36.22A.75.75 0 006 37.5h2.25v2.25a.75.75 0 001.28.531l.128-.127a23.086 23.086 0 004.593-6.558V45.75a.75.75 0 00.75.75h28.5a.75.75 0 00.75-.75v-24a.75.75 0 00-.75-.75h-1.463a11.93 11.93 0 00-1.204-5.236l1.36-1.36a4.467 4.467 0 000-6.31zM26.25 4.06l2.69 2.69-7.19 7.19-2.689-2.69 7.19-7.19zm-9 14.38l-2.689-2.69 3.44-3.44L20.69 15l-3.44 3.44zm.86 1.261c-.047.431-.071.865-.072 1.299h-1.227l1.3-1.299zM16.5 4.125a1.125 1.125 0 112.25 0V4.5a.75.75 0 00.75.75h.13c.9-.002 1.779.276 2.514.796l-4.143 4.143-1.5-1.5V4.125zm-4.409 7.125h.66a.75.75 0 00.75-.75v-.66a.84.84 0 011.435-.594l2.004 2.004-3.44 3.44-2.003-2.005a.84.84 0 01.595-1.435zm-5.34 5.25h-.376a1.125 1.125 0 010-2.25h4.565l1.5 1.5-4.144 4.143a4.338 4.338 0 01-.796-2.515v-.128a.75.75 0 00-.75-.75zm7.5 12.652a21.584 21.584 0 01-4.5 8.692V36.75A.75.75 0 009 36H7.803a15.124 15.124 0 004.193-10.186l2.254-2.253v5.591zM9 26.69L6.31 24l7.19-7.188 2.69 2.688L9 26.69zm16.5 12.886a2.25 2.25 0 100 3.35V45h-9.75v-7.19l3.97 3.97a.75.75 0 001.257-.348l1.5-6a.752.752 0 00-.91-.91l-5.818 1.455V22.5h9.75v17.075zm-.75 1.675a.75.75 0 11-1.5 0 .75.75 0 011.5 0zm-7.534-4.094l3.503-.875-.876 3.502-2.627-2.627zm7.571-16.958V21h-5.25c0-1.1.172-2.192.51-3.238L26.8 11.01A10.503 10.503 0 0140.538 21h-5.25v-.802A3.703 3.703 0 0031.59 16.5h-3.104a3.703 3.703 0 00-3.698 3.698zm8.25-1.448c0-.072-.004-.142-.01-.212a2.194 2.194 0 01.76 1.66V21h-3a2.253 2.253 0 002.25-2.25zm-3.75.75a.75.75 0 110-1.5h1.5a.75.75 0 010 1.5h-1.5zm-3 .698a2.192 2.192 0 01.76-1.66A2.253 2.253 0 0029.288 21h-3v-.802zM31.5 45H27V22.5h4.5V45zm11.25-22.5V45h-4.078l3.809-3.174a.75.75 0 00-.243-1.288l-4.5-1.5a.75.75 0 00-.987.712V45H33V22.5h9.75zm-4.5 20.898V40.79l2.236.745-2.235 1.864zm2.883-30.054l-1.069 1.07a12.087 12.087 0 00-4.38-4l1.26-1.259a2.963 2.963 0 114.189 4.19z" fill="url(#paint0_linear)"/><path d="M33.413 15.75a1.125 1.125 0 100-2.25 1.125 1.125 0 000 2.25z" fill="url(#paint1_linear)"/><path d="M26.663 13.5a1.125 1.125 0 100 2.25 1.125 1.125 0 000-2.25z" fill="url(#paint2_linear)"/><path d="M32.25 3h1.5v1.5h-1.5V3z" fill="url(#paint3_linear)"/><path d="M35.25 3h1.5v1.5h-1.5V3z" fill="url(#paint4_linear)"/><path d="M33.75 1.5h1.5V3h-1.5V1.5z" fill="url(#paint5_linear)"/><path d="M33.75 4.5h1.5V6h-1.5V4.5z" fill="url(#paint6_linear)"/><path d="M42 4.5h1.5V6H42V4.5z" fill="url(#paint7_linear)"/><path d="M45 4.5h1.5V6H45V4.5z" fill="url(#paint8_linear)"/><path d="M43.5 3H45v1.5h-1.5V3z" fill="url(#paint9_linear)"/><path d="M43.5 6H45v1.5h-1.5V6z" fill="url(#paint10_linear)"/><defs><linearGradient id="paint0_linear" x1="3.749" y1="4.338" x2="48.458" y2="38.294" gradientUnits="userSpaceOnUse"><stop stop-color="#82BB58"/><stop offset="1" stop-color="#53A580"/></linearGradient><linearGradient id="paint1_linear" x1="32.288" y1="13.642" x2="34.576" y2="15.572" gradientUnits="userSpaceOnUse"><stop stop-color="#82BB58"/><stop offset="1" stop-color="#53A580"/></linearGradient><linearGradient id="paint2_linear" x1="25.538" y1="13.642" x2="27.826" y2="15.572" gradientUnits="userSpaceOnUse"><stop stop-color="#82BB58"/><stop offset="1" stop-color="#53A580"/></linearGradient><linearGradient id="paint3_linear" x1="32.25" y1="3.095" x2="33.775" y2="4.381" gradientUnits="userSpaceOnUse"><stop stop-color="#82BB58"/><stop offset="1" stop-color="#53A580"/></linearGradient><linearGradient id="paint4_linear" x1="35.25" y1="3.095" x2="36.775" y2="4.381" gradientUnits="userSpaceOnUse"><stop stop-color="#82BB58"/><stop offset="1" stop-color="#53A580"/></linearGradient><linearGradient id="paint5_linear" x1="33.75" y1="1.595" x2="35.275" y2="2.881" gradientUnits="userSpaceOnUse"><stop stop-color="#82BB58"/><stop offset="1" stop-color="#53A580"/></linearGradient><linearGradient id="paint6_linear" x1="33.75" y1="4.595" x2="35.275" y2="5.881" gradientUnits="userSpaceOnUse"><stop stop-color="#82BB58"/><stop offset="1" stop-color="#53A580"/></linearGradient><linearGradient id="paint7_linear" x1="42" y1="4.595" x2="43.525" y2="5.881" gradientUnits="userSpaceOnUse"><stop stop-color="#82BB58"/><stop offset="1" stop-color="#53A580"/></linearGradient><linearGradient id="paint8_linear" x1="45" y1="4.595" x2="46.525" y2="5.881" gradientUnits="userSpaceOnUse"><stop stop-color="#82BB58"/><stop offset="1" stop-color="#53A580"/></linearGradient><linearGradient id="paint9_linear" x1="43.5" y1="3.095" x2="45.025" y2="4.381" gradientUnits="userSpaceOnUse"><stop stop-color="#82BB58"/><stop offset="1" stop-color="#53A580"/></linearGradient><linearGradient id="paint10_linear" x1="43.5" y1="6.095" x2="45.025" y2="7.381" gradientUnits="userSpaceOnUse"><stop stop-color="#82BB58"/><stop offset="1" stop-color="#53A580"/></linearGradient></defs></svg>