<svg width="44" height="44" fill="none" xmlns="http://www.w3.org/2000/svg"><path d="M42.628 21.315H22.69v-4.861a4.813 4.813 0 000-9.527v-5.55a.688.688 0 00-.687-.687H4.815A4.13 4.13 0 00.69 4.815V39.19a4.13 4.13 0 004.125 4.125H39.19a4.13 4.13 0 004.125-4.125V22.003a.688.688 0 00-.687-.688zM2.065 4.815a2.753 2.753 0 012.75-2.75h16.5v5.5a.688.688 0 00.688.688 3.437 3.437 0 110 6.875.687.687 0 00-.688.687v5.5h-4.862a4.813 4.813 0 00-9.525 0H2.065v-16.5zm19.25 37.125h-16.5a2.753 2.753 0 01-2.75-2.75v-16.5h5.5a.688.688 0 00.688-.687 3.437 3.437 0 116.875 0 .688.688 0 00.687.687h5.5v4.861a4.813 4.813 0 000 9.528v4.861zm20.625-2.75a2.754 2.754 0 01-2.75 2.75h-16.5v-5.5a.688.688 0 00-.687-.687 3.437 3.437 0 110-6.875.688.688 0 00.687-.688v-5.5h19.25v16.5z" fill="url(#paint0_linear)"/><path d="M31.628 25.445h4.812a.687.687 0 100-1.375h-4.812a.687.687 0 100 1.375z" fill="url(#paint1_linear)"/><path d="M39.188 25.445h.687a.687.687 0 100-1.375h-.688a.687.687 0 100 1.375z" fill="url(#paint2_linear)"/><defs><linearGradient id="paint0_linear" x1=".69" y1="3.378" x2="44.026" y2="39.947" gradientUnits="userSpaceOnUse"><stop stop-color="#82BB58"/><stop offset="1" stop-color="#53A580"/></linearGradient><linearGradient id="paint1_linear" x1="30.94" y1="24.157" x2="31.639" y2="26.809" gradientUnits="userSpaceOnUse"><stop stop-color="#82BB58"/><stop offset="1" stop-color="#53A580"/></linearGradient><linearGradient id="paint2_linear" x1="38.5" y1="24.157" x2="39.88" y2="25.903" gradientUnits="userSpaceOnUse"><stop stop-color="#82BB58"/><stop offset="1" stop-color="#53A580"/></linearGradient></defs></svg>