<svg width="48" height="48" fill="none" xmlns="http://www.w3.org/2000/svg"><path d="M43.503 28.506v-2.25a3.754 3.754 0 00-3.75-3.75h-12.75a3.747 3.747 0 00-3 1.502 3.746 3.746 0 00-3-1.502H8.253a3.754 3.754 0 00-3.75 3.75v2.25a3.754 3.754 0 00-3.75 3.75v13.5a.75.75 0 00.75.75h45a.75.75 0 00.75-.75v-13.5a3.754 3.754 0 00-3.75-3.75zm-35.25 16.5h-6v-12.75a2.253 2.253 0 012.25-2.25h1.5a2.253 2.253 0 012.25 2.25v12.75zm-2.25-16.5v-2.25a2.253 2.253 0 012.25-2.25h12.75a2.253 2.253 0 012.25 2.25v9.002a3.732 3.732 0 00-2.25-.752h-9a3.728 3.728 0 00-2.25.752v-3.002a3.754 3.754 0 00-3.75-3.75zm17.25 9.75v2.25h-13.5v-2.25a2.253 2.253 0 012.25-2.25h9a2.253 2.253 0 012.25 2.25zm15 6.75h-28.5v-3h28.5v3zm0-4.5h-13.5v-2.25a2.253 2.253 0 012.25-2.25h9a2.253 2.253 0 012.25 2.25v2.25zm0-8.25v3.002a3.732 3.732 0 00-2.25-.752h-9a3.728 3.728 0 00-2.25.752v-9.002a2.253 2.253 0 012.25-2.25h12.75a2.253 2.253 0 012.25 2.25v2.25a3.753 3.753 0 00-3.75 3.75zm7.5 12.75h-6v-12.75a2.253 2.253 0 012.25-2.25h1.5a2.253 2.253 0 012.25 2.25v12.75z" fill="url(#paint0_linear)"/><path d="M35.25 1.506h-22.5a.75.75 0 00-.75.75v16.5a.75.75 0 00.75.75h22.5a.75.75 0 00.75-.75v-16.5a.75.75 0 00-.75-.75zm-.75 16.5h-21v-15h21v15z" fill="url(#paint1_linear)"/><path d="M33.003 3.753h-18a.75.75 0 00-.75.75v12a.75.75 0 00.75.75h18a.75.75 0 00.75-.75v-12a.75.75 0 00-.75-.75zm-14.899 12l2.149-2.578 2.149 2.578h-4.298zm6.25 0l-1.562-1.875 3.055-3.667 4.156 5.542h-5.648zm7.899 0h-.375l-5.4-7.2a.75.75 0 00-1.177-.03l-3.485 4.183-.986-1.183a.75.75 0 00-1.154 0l-3.525 4.23h-.398v-10.5h16.5v10.5z" fill="url(#paint2_linear)"/><path d="M20.25 10.5a2.25 2.25 0 100-4.5 2.25 2.25 0 000 4.5zm0-3a.75.75 0 110 1.5.75.75 0 010-1.5z" fill="url(#paint3_linear)"/><defs><linearGradient id="paint0_linear" x1=".753" y1="24.019" x2="22.788" y2="60.047" gradientUnits="userSpaceOnUse"><stop stop-color="#82BB58"/><stop offset="1" stop-color="#53A580"/></linearGradient><linearGradient id="paint1_linear" x1="12" y1="2.641" x2="30.436" y2="23.384" gradientUnits="userSpaceOnUse"><stop stop-color="#82BB58"/><stop offset="1" stop-color="#53A580"/></linearGradient><linearGradient id="paint2_linear" x1="14.253" y1="4.604" x2="27.908" y2="21.248" gradientUnits="userSpaceOnUse"><stop stop-color="#82BB58"/><stop offset="1" stop-color="#53A580"/></linearGradient><linearGradient id="paint3_linear" x1="18" y1="6.284" x2="22.575" y2="10.145" gradientUnits="userSpaceOnUse"><stop stop-color="#82BB58"/><stop offset="1" stop-color="#53A580"/></linearGradient></defs></svg>